<svg width="34" height="34" viewBox="0 0 34 34" fill="none" xmlns="http://www.w3.org/2000/svg">
<mask id="mask0" mask-type="alpha" maskUnits="userSpaceOnUse" x="0" y="0" width="34" height="34">
<circle cx="17" cy="17" r="17" fill="white"/>
</mask>
<g mask="url(#mask0)">
<path d="M16.8717 28.0022C11.1763 25.22 3.29437 27.883 0.0653034 29.5623C-1.83175 34.6704 -2.16677 45.1155 11.6696 46.0313C28.9651 47.1761 35.3215 31.8959 31.3302 31.6317C27.339 31.3675 23.9909 31.48 16.8717 28.0022Z" fill="#A9F191"/>
<path d="M16.2962 28.9379C10.4295 26.5379 2.74066 29.7157 -0.370455 31.6046C-1.92601 36.8268 -1.57045 47.2712 12.2962 47.2712C29.6295 47.2712 34.9629 31.6046 30.9629 31.6046C26.9629 31.6046 23.6295 31.9379 16.2962 28.9379Z" fill="#8DCA78"/>
</g>
</svg>
