<svg width="34" height="34" viewBox="0 0 34 34" fill="none" xmlns="http://www.w3.org/2000/svg">
<mask id="mask0" mask-type="alpha" maskUnits="userSpaceOnUse" x="0" y="0" width="34" height="34">
<circle cx="17" cy="17" r="17" fill="white"/>
</mask>
<g mask="url(#mask0)">
<path d="M16.8717 23.0643C11.1763 20.2821 3.29437 22.9451 0.0653034 24.6244C-1.83175 29.7325 -2.16677 40.1776 11.6696 41.0934C28.9651 42.2382 35.3215 26.958 31.3302 26.6938C27.339 26.4296 23.9909 26.5421 16.8717 23.0643Z" fill="#A9F191"/>
<path d="M16.2962 24C10.4295 21.6 2.74066 24.7778 -0.370455 26.6667C-1.92601 31.8889 -1.57045 42.3333 12.2962 42.3333C29.6295 42.3333 34.9629 26.6667 30.9629 26.6667C26.9629 26.6667 23.6295 27 16.2962 24Z" fill="#8DCA78"/>
</g>
</svg>
