<svg width="34" height="34" viewBox="0 0 34 34" fill="none" xmlns="http://www.w3.org/2000/svg">
<mask id="mask0" mask-type="alpha" maskUnits="userSpaceOnUse" x="0" y="0" width="34" height="34">
<circle cx="17" cy="17" r="17" fill="white"/>
</mask>
<g mask="url(#mask0)">
<path d="M6.17509 8.22199C-11.4171 9.75249 -26.4156 27.4232 -31.7158 36.0673C-28.9146 50.9868 -14.724 76.4082 19.6286 58.7373C62.5693 36.6487 55.8172 -8.95944 45.9078 -3.86208C35.9984 1.23528 28.1653 6.30887 6.17509 8.22199Z" fill="#A9F191"/>
<path d="M5.126 9.78772C-12.3631 12.568 -26.2902 31.176 -31.0676 40.1325C-27.3716 54.7343 -11.6622 78.9388 21.6067 58.9425C63.1929 33.9471 53.7042 -10.8196 44.1074 -5.05142C34.5106 0.716746 26.9874 6.3124 5.126 9.78772Z" fill="#8DCA78"/>
</g>
</svg>
